<?xml version="1.0" standalone="no"?>
<!DOCTYPE svg PUBLIC "-//W3C//DTD SVG 20010904//EN"
 "http://www.w3.org/TR/2001/REC-SVG-20010904/DTD/svg10.dtd">
<svg version="1.0" xmlns="http://www.w3.org/2000/svg"
 width="900.000000pt" height="900.000000pt" viewBox="0 0 900.000000 900.000000"
 preserveAspectRatio="xMidYMid meet">
<metadata>
Created by potrace 1.14, written by Peter Selinger 2001-2017
</metadata>
<g transform="translate(0.000000,900.000000) scale(0.100000,-0.100000)"
fill="#000000" stroke="none">
<path d="M3045 7530 c-3 -6 -17 -7 -31 -4 -28 7 -54 -10 -54 -37 0 -16 -3 -17
-19 -8 -27 18 -51 4 -51 -29 0 -24 -4 -28 -27 -27 -26 0 -28 -3 -28 -39 0 -31
-4 -40 -22 -47 -23 -8 -32 -43 -14 -53 10 -7 3 -44 -12 -63 -5 -7 -6 -25 -2
-40 4 -16 9 -39 10 -53 2 -14 26 -105 54 -203 28 -97 51 -186 51 -197 0 -10 5
-22 10 -25 6 -3 10 -19 10 -34 0 -33 20 -54 47 -49 21 4 21 3 9 -137 -8 -98
-7 -105 39 -300 86 -371 155 -677 155 -688 -1 -7 -7 3 -15 21 -8 17 -19 32
-25 32 -7 0 -9 8 -5 21 5 14 -1 27 -18 43 -18 17 -23 30 -20 49 4 18 0 29 -9
32 -8 3 -15 20 -16 36 0 17 -9 40 -19 51 -10 11 -16 30 -15 43 2 13 -3 27 -11
32 -19 11 -27 39 -15 51 13 13 1 52 -17 52 -15 0 -27 51 -14 65 16 16 10 37
-17 62 -20 18 -24 27 -15 36 17 17 13 42 -8 61 -16 15 -18 22 -9 42 10 22 7
28 -25 58 -38 34 -40 41 -37 88 1 21 -5 31 -24 39 -14 7 -28 20 -31 29 -5 16
-34 27 -94 36 -39 5 -51 12 -51 32 0 14 13 21 50 31 65 17 78 39 46 78 -18 21
-22 33 -15 46 12 21 -5 57 -28 57 -13 0 -14 3 -5 12 15 15 15 29 1 65 -11 27
-13 36 -17 76 -1 9 -13 22 -26 29 -23 10 -24 13 -11 32 13 19 12 25 -5 54 -11
18 -24 32 -30 32 -6 0 -6 7 1 19 15 23 5 51 -21 58 -15 4 -18 11 -14 33 5 23
1 32 -24 50 -17 13 -33 34 -37 47 -5 22 -56 51 -77 45 -5 -1 -8 4 -8 11 0 22
-37 50 -56 43 -11 -4 -22 1 -31 14 -16 23 -44 26 -73 8 -16 -10 -23 -9 -43 10
-27 26 -57 21 -57 -9 0 -23 -15 -25 -24 -4 -3 8 -17 15 -31 15 -24 0 -27 -4
-29 -40 -1 -8 -3 -15 -6 -14 -3 1 -15 4 -28 8 -28 9 -54 -9 -51 -38 2 -34 0
-39 -15 -27 -26 22 -48 2 -45 -41 3 -33 -1 -41 -21 -52 -25 -12 -26 -15 -13
-80 4 -20 1 -31 -11 -38 -22 -12 -20 -34 4 -58 11 -11 15 -22 10 -25 -16 -10
-11 -37 11 -61 13 -14 22 -38 23 -64 1 -26 9 -47 19 -55 10 -7 17 -26 17 -46
0 -23 7 -41 21 -52 15 -14 19 -25 14 -47 -5 -21 -1 -34 14 -49 15 -15 19 -28
15 -50 -5 -22 -1 -32 16 -44 15 -10 20 -22 16 -32 -3 -9 -1 -26 5 -37 9 -16
18 -19 44 -15 28 5 34 2 39 -16 3 -12 1 -24 -4 -27 -6 -3 -6 -47 -1 -110 7
-91 21 -146 101 -405 160 -520 189 -625 174 -625 -8 0 -14 -8 -14 -18 0 -9 45
-147 100 -306 98 -283 157 -470 200 -631 12 -44 26 -95 32 -113 l10 -33 34 26
c24 18 34 22 34 12 0 -8 13 -43 30 -78 l29 -64 -24 -21 c-13 -12 -29 -24 -35
-26 -8 -2 8 -72 49 -212 34 -115 60 -211 57 -213 -11 -11 -44 19 -49 45 -12
58 -78 161 -140 217 -75 69 -100 104 -85 122 6 7 15 13 20 13 5 0 24 16 44 35
27 28 33 40 28 60 -3 14 -10 28 -15 31 -5 3 -9 16 -9 30 0 14 -8 39 -17 57 -9
18 -18 45 -20 62 -2 16 -8 34 -13 39 -6 6 -10 20 -10 32 0 13 -4 25 -9 28 -8
5 -14 28 -27 96 -2 8 -8 16 -13 18 -6 2 -11 12 -11 22 0 10 -5 22 -10 25 -6 4
-8 10 -5 14 7 12 -34 124 -50 137 -8 6 -12 14 -9 17 3 3 0 23 -7 44 -7 21 -12
43 -11 50 1 6 -5 18 -15 25 -10 7 -24 23 -31 36 -10 19 -9 25 8 42 21 21 17
50 -6 50 -16 0 -18 23 -4 50 13 25 2 50 -22 50 -17 0 -19 6 -16 42 2 34 -1 44
-17 53 -11 5 -19 17 -17 26 2 9 -8 26 -22 37 -21 16 -25 26 -20 49 5 24 1 33
-21 47 -22 14 -25 22 -20 46 5 20 1 32 -12 42 -10 7 -18 19 -19 26 -1 6 -2 24
-2 38 -1 17 -9 28 -23 31 -16 5 -19 11 -14 35 6 23 2 34 -20 54 -21 19 -25 28
-16 37 18 18 13 42 -15 66 -21 18 -25 28 -19 49 11 46 7 63 -22 90 -18 16 -23
27 -15 30 20 6 14 47 -12 75 -14 15 -20 29 -15 32 20 13 9 54 -20 71 -36 21
-53 57 -45 90 7 26 -18 64 -41 64 -7 0 -16 11 -19 25 -7 27 -41 46 -91 51 -55
5 -70 9 -77 19 -13 17 -9 20 50 40 93 31 103 48 52 95 -18 17 -26 31 -20 35
18 11 11 54 -10 65 -15 8 -19 17 -14 36 7 25 -12 84 -27 84 -5 0 -6 7 -3 15
11 27 -6 65 -31 75 -26 10 -32 24 -15 35 20 12 10 53 -20 78 -17 14 -26 29
-20 32 14 9 13 58 -2 73 -7 7 -19 12 -29 12 -12 0 -16 9 -15 38 1 32 -3 39
-31 52 -18 8 -33 22 -33 31 0 33 -40 69 -76 69 -29 0 -34 3 -34 23 0 28 -38
52 -69 42 -12 -3 -21 -2 -21 4 0 34 -62 53 -98 30 -15 -9 -24 -7 -47 15 -34
31 -65 31 -81 -2 l-11 -22 -18 20 c-31 34 -62 21 -79 -34 -6 -17 -8 -18 -24
-2 -24 21 -45 20 -66 -3 -12 -13 -15 -27 -11 -41 6 -20 4 -21 -22 -16 -44 9
-57 -5 -51 -58 5 -43 4 -46 -17 -46 -29 0 -49 -24 -40 -47 16 -39 16 -80 1
-93 -22 -17 -20 -40 6 -67 17 -18 19 -26 10 -35 -19 -19 -14 -32 23 -71 32
-33 35 -40 29 -76 -6 -37 -4 -41 21 -53 23 -11 26 -16 20 -46 -6 -30 -2 -38
25 -64 27 -24 31 -33 25 -60 -6 -27 -3 -35 21 -55 23 -18 26 -25 16 -35 -20
-20 -14 -46 18 -68 24 -17 28 -25 20 -35 -29 -35 18 -73 76 -62 35 6 50 -30
21 -53 -17 -14 -18 -19 -7 -40 7 -13 14 -51 15 -84 2 -42 18 -108 53 -211 28
-82 107 -316 175 -520 96 -282 122 -371 111 -373 -8 -2 -14 -13 -14 -25 0 -12
65 -195 144 -407 80 -212 170 -468 202 -570 32 -102 59 -187 60 -189 2 -2 18
7 36 21 l33 25 37 -79 37 -79 -34 -16 c-19 -9 -35 -20 -35 -23 0 -4 78 -250
174 -548 157 -486 180 -567 225 -787 28 -135 58 -262 66 -283 38 -90 154 -167
285 -190 36 -6 228 -14 428 -17 l363 -7 142 -78 142 -78 175 20 175 20 72 45
c43 26 90 66 114 97 22 28 42 51 43 51 2 0 38 -40 81 -90 116 -134 183 -203
204 -210 10 -3 29 3 45 16 34 27 155 176 170 209 6 14 94 129 195 255 101 127
189 236 194 243 8 10 -6 29 -59 77 -38 35 -74 64 -80 65 -6 0 -93 -101 -194
-225 -100 -124 -185 -225 -189 -225 -3 0 -39 30 -79 65 -51 46 -79 64 -92 60
-9 -3 -27 3 -40 13 -19 15 -22 24 -16 54 5 25 13 38 29 42 35 9 35 9 69 -50
l31 -57 89 6 c50 3 96 12 108 20 18 12 18 15 4 35 -13 20 -17 20 -53 7 -42
-15 -51 -12 -51 16 0 13 10 20 35 25 19 3 40 13 47 21 10 13 9 18 -9 33 l-22
17 24 23 c13 12 135 65 272 117 201 77 256 102 288 132 22 20 68 56 102 79 34
23 85 69 115 103 78 91 159 137 426 244 130 52 255 108 277 124 22 15 166 93
320 173 539 280 565 297 671 453 l56 82 51 -20 c34 -13 77 -20 122 -21 69 -1
76 2 400 142 182 79 353 158 381 177 80 52 151 131 189 209 62 125 68 229 20
348 -22 56 -22 58 -4 74 34 31 22 58 -38 92 -13 6 -30 12 -38 12 -11 0 -14 6
-10 23 9 36 -27 62 -81 60 -36 -1 -44 2 -44 17 0 10 -15 29 -34 44 -27 20 -46
26 -84 26 -34 0 -57 6 -75 20 -28 22 -68 26 -99 9 -15 -8 -22 -8 -28 1 -9 14
-67 17 -81 3 -8 -8 -18 -7 -36 2 -25 13 -59 10 -69 -6 -3 -5 -19 -9 -35 -9
-17 0 -44 -8 -62 -17 -18 -9 -46 -15 -64 -14 -27 2 -36 -4 -60 -36 -23 -31
-33 -37 -56 -35 -32 4 -67 -21 -67 -48 0 -18 -27 -30 -68 -30 -13 0 -37 -13
-54 -30 -16 -16 -35 -30 -42 -30 -20 0 -66 -39 -66 -56 0 -9 -11 -14 -31 -14
-21 0 -40 -10 -61 -30 -16 -16 -37 -30 -47 -30 -10 0 -28 -11 -40 -24 -13 -13
-33 -27 -46 -30 -13 -3 -27 -16 -31 -29 -3 -12 -13 -30 -22 -40 -12 -13 -13
-22 -4 -41 14 -31 -3 -39 -35 -18 -20 13 -26 12 -48 -2 -14 -9 -24 -25 -23
-34 2 -13 -6 -18 -32 -20 -43 -4 -63 -20 -57 -43 4 -15 0 -17 -22 -13 -32 7
-67 -26 -57 -52 5 -13 1 -15 -21 -11 -34 6 -63 -8 -63 -31 0 -17 -14 -22 -69
-22 -13 0 -30 -5 -39 -12 -18 -15 -48 -32 -89 -52 -18 -8 -33 -20 -33 -25 0
-6 -11 -11 -25 -11 -13 0 -28 -8 -34 -17 -5 -10 -12 -16 -14 -13 -9 10 -117
-46 -123 -63 -3 -11 -12 -16 -21 -13 -19 8 -53 -11 -53 -29 0 -8 -8 -15 -19
-15 -24 0 -45 -25 -37 -45 3 -10 -4 -26 -19 -41 -28 -28 -38 -30 -55 -9 -17
21 -47 19 -54 -3 -5 -14 -14 -17 -43 -14 -23 3 -40 0 -47 -9 -6 -8 -24 -15
-41 -17 -16 -2 -35 -10 -41 -18 -6 -8 -18 -14 -26 -14 -9 0 -21 -6 -27 -14 -7
-8 -23 -17 -36 -20 -14 -4 -25 -11 -25 -16 0 -6 -7 -10 -15 -10 -8 0 -23 -8
-33 -17 -10 -10 -34 -26 -53 -36 -39 -21 -105 -77 -204 -177 -5 -5 -24 -22
-41 -37 -17 -16 -37 -38 -43 -50 -6 -13 -16 -23 -20 -23 -5 0 -37 34 -72 75
-46 54 -66 72 -75 64 -16 -13 -27 5 -19 30 3 10 -1 24 -10 31 -8 7 -15 20 -15
30 0 9 -11 22 -25 28 -14 6 -25 18 -25 27 0 8 -5 15 -10 15 -6 0 -40 29 -75
65 -36 36 -70 65 -75 65 -6 0 -10 7 -10 15 0 8 -4 15 -9 15 -15 0 -81 63 -81
77 0 8 -8 17 -17 20 -25 9 -93 83 -93 100 0 8 -9 17 -20 20 -11 3 -20 12 -20
21 0 8 -16 30 -35 49 -19 19 -35 40 -35 47 0 8 -7 16 -15 20 -8 3 -15 12 -15
20 0 7 -7 16 -15 20 -8 3 -15 12 -15 20 0 31 -83 37 -100 7 -5 -11 -10 -57
-11 -103 l-1 -83 -23 88 c-13 48 -21 96 -18 106 3 10 0 22 -6 25 -6 4 -8 18
-5 32 4 17 1 26 -10 30 -9 3 -16 12 -16 19 0 8 -25 22 -56 32 -55 18 -56 19
-87 90 -26 58 -43 80 -90 118 -59 48 -99 106 -78 113 6 2 11 10 11 18 0 8 7
14 15 14 8 0 15 5 15 10 0 6 6 10 13 10 13 0 57 43 57 56 0 4 -7 16 -16 26
-14 15 -15 20 -4 33 10 12 10 19 2 27 -7 7 -12 22 -12 34 0 13 -5 26 -11 30
-6 4 -8 20 -5 39 4 19 2 36 -3 39 -5 3 -7 15 -4 26 3 11 -2 27 -12 36 -9 9
-14 23 -10 32 3 8 -1 25 -10 38 -8 13 -12 30 -9 39 4 8 0 22 -7 31 -7 9 -12
29 -11 45 1 16 -2 29 -8 29 -5 0 -10 11 -10 25 0 14 -7 37 -16 50 -9 13 -13
29 -9 35 9 15 -14 70 -30 70 -24 0 -26 43 -3 67 20 21 20 24 5 41 -19 21 -22
48 -7 57 17 11 11 37 -11 42 -18 5 -19 11 -14 44 5 31 3 40 -9 45 -9 3 -16 17
-16 30 0 13 -9 28 -19 34 -13 6 -17 17 -14 30 3 12 -2 29 -12 40 -10 11 -15
26 -12 33 3 8 -1 24 -9 36 -8 12 -12 26 -9 31 3 6 -3 23 -14 39 -12 16 -21 38
-21 49 0 11 -6 32 -14 48 -10 19 -12 33 -5 45 12 23 12 25 -6 42 -19 19 -31
67 -16 67 18 0 12 32 -11 57 -17 18 -19 26 -10 35 18 18 15 41 -8 61 -19 16
-19 19 -5 33 11 12 12 20 5 35 -6 10 -15 19 -20 19 -20 0 -50 62 -39 81 10 19
-12 49 -36 49 -8 0 -17 9 -20 20 -3 11 -11 21 -16 21 -5 1 -12 2 -16 3 -5 1
-27 6 -50 10 -35 6 -43 12 -43 30 0 18 9 24 50 35 61 16 74 34 52 76 -9 16
-15 42 -13 58 1 16 -3 29 -12 33 -11 4 -13 17 -10 48 3 26 1 46 -6 50 -6 4
-11 20 -11 37 0 17 -7 33 -19 41 -15 9 -17 16 -9 34 13 28 2 74 -17 74 -12 0
-13 4 -4 19 15 23 5 51 -21 58 -15 4 -18 11 -14 28 7 28 -11 65 -31 65 -8 0
-15 8 -15 18 0 27 -43 64 -65 56 -11 -5 -16 -4 -12 3 11 18 -23 54 -44 48 -13
-5 -25 1 -38 16 -17 21 -19 21 -41 6 -22 -15 -24 -15 -37 3 -15 21 -57 27 -68
10z m278 -899 c5 -21 4 -45 -2 -64 -6 -16 -11 -51 -11 -77 0 -43 -3 -47 -34
-63 l-34 -16 -12 30 c-7 16 -29 53 -50 82 -20 30 -40 65 -43 80 -7 25 -5 26
75 45 46 11 87 19 93 18 5 -1 13 -17 18 -35z m-763 -195 c5 -13 10 -66 11
-117 l2 -94 -49 -22 c-92 -41 -100 -41 -125 9 -12 23 -31 56 -43 73 -11 16
-28 49 -37 72 l-17 43 37 9 c226 60 209 58 221 27z m-852 -273 c5 -10 12 -64
14 -120 l5 -103 -51 -19 c-66 -24 -159 -52 -162 -48 -36 36 -132 223 -120 234
4 4 266 67 298 72 4 1 11 -7 16 -16z m2166 -1612 c11 -12 14 -21 8 -21 -6 0
-15 -15 -20 -32 -10 -38 -18 -39 -124 -7 -57 18 -67 24 -57 35 7 8 20 12 29 9
9 -3 23 1 30 10 7 8 25 15 40 15 16 0 30 7 34 15 7 19 30 9 60 -24z m-374
-219 c-6 -26 -18 -43 -36 -50 -32 -15 -38 -12 -70 44 -26 44 -26 45 -8 59 11
8 23 15 28 15 5 0 20 12 34 28 l26 27 18 -43 c15 -34 17 -49 8 -80z m-229 -49
c27 -16 40 -43 20 -43 -5 0 -12 -15 -15 -33 -5 -29 -9 -32 -39 -31 -17 1 -61
15 -97 32 -59 27 -62 30 -34 31 17 1 37 8 44 16 7 8 23 15 37 15 13 0 26 7 29
15 8 19 19 19 55 -2z m1174 -503 c28 -78 39 -125 41 -180 l4 -75 -45 170 c-61
234 -61 256 0 85z m-1872 34 c-3 -8 -9 -14 -14 -14 -5 0 -9 -9 -9 -19 0 -24
-12 -32 -30 -21 -8 5 -22 2 -37 -7 -19 -13 -28 -13 -53 -3 -34 14 -31 30 5 30
13 0 30 9 38 21 8 11 27 22 41 23 15 2 29 6 32 9 11 11 33 -5 27 -19z m1815
-887 c-26 -50 -160 -177 -166 -158 -2 7 -1 26 2 44 6 25 25 46 94 98 48 37 88
66 90 64 2 -2 -7 -23 -20 -48z m-1135 -987 c48 -40 86 -74 84 -76 -3 -4 -370
16 -374 19 -1 1 37 36 85 78 72 63 90 74 102 64 8 -6 55 -44 103 -85z m1575
-167 c8 -13 -1 -30 -39 -77 -37 -45 -46 -63 -37 -73 6 -7 17 -13 26 -13 12 0
10 -6 -8 -25 -13 -14 -27 -25 -32 -25 -13 0 -85 69 -72 70 6 0 39 36 75 80 35
44 67 80 71 80 4 0 11 -8 16 -17z"/>
</g>
</svg>
